<?xml version="1.0" encoding="UTF-8"?>
<svg xmlns="http://www.w3.org/2000/svg" xmlns:xlink="http://www.w3.org/1999/xlink" width="60px" height="60px" viewBox="0 0 60 60" version="1.1">
<defs>
<linearGradient id="linear0" gradientUnits="userSpaceOnUse" x1="873.14038" y1="529.4743" x2="872.72632" y2="501.52628" gradientTransform="matrix(0.165549,0,0,0.165549,-116.929694,-49.556268)">
<stop offset="0" style="stop-color:rgb(98.823529%,99.215686%,99.215686%);stop-opacity:1;"/>
<stop offset="1" style="stop-color:rgb(40%,36.078431%,28.235294%);stop-opacity:1;"/>
</linearGradient>
<linearGradient id="linear1" gradientUnits="userSpaceOnUse" x1="1012.7032" y1="504.48358" x2="1012.7032" y2="527.72577" gradientTransform="matrix(0.165549,0,0,-0.165549,-124.99107,120.593631)">
<stop offset="0" style="stop-color:rgb(99.215686%,30.196078%,22.352941%);stop-opacity:1;"/>
<stop offset="1" style="stop-color:rgb(91.372549%,15.294118%,11.372549%);stop-opacity:1;"/>
</linearGradient>
<linearGradient id="linear2" gradientUnits="userSpaceOnUse" x1="646.1604" y1="771.60852" x2="673.70477" y2="763.80023" gradientTransform="matrix(0.165549,0,0,0.165549,-102.46978,-94.081536)">
<stop offset="0" style="stop-color:rgb(30.196078%,30.196078%,30.196078%);stop-opacity:1;"/>
<stop offset="1" style="stop-color:rgb(0%,0%,0%);stop-opacity:1;"/>
</linearGradient>
<linearGradient id="linear3" gradientUnits="userSpaceOnUse" x1="662.42181" y1="733.83508" x2="662.42181" y2="720.23657" gradientTransform="matrix(0.165549,0,0,0.165549,-103.962187,-87.756567)">
<stop offset="0" style="stop-color:rgb(84.705882%,83.529412%,77.647059%);stop-opacity:1;"/>
<stop offset="1" style="stop-color:rgb(0%,0%,0%);stop-opacity:1;"/>
</linearGradient>
<linearGradient id="linear4" gradientUnits="userSpaceOnUse" x1="708.09021" y1="737.9231" x2="708.09021" y2="721.94952" gradientTransform="matrix(0.165549,0,0,0.165549,-103.962187,-87.756567)">
<stop offset="0" style="stop-color:rgb(84.705882%,83.529412%,77.647059%);stop-opacity:1;"/>
<stop offset="1" style="stop-color:rgb(7.45098%,9.411765%,7.45098%);stop-opacity:1;"/>
</linearGradient>
<linearGradient id="linear5" gradientUnits="userSpaceOnUse" x1="656.26849" y1="726.82269" x2="677.13269" y2="726.82269" gradientTransform="matrix(0,-0.165549,0.165549,0,-110.436567,146.397391)">
<stop offset="0" style="stop-color:rgb(84.705882%,83.529412%,77.647059%);stop-opacity:1;"/>
<stop offset="1" style="stop-color:rgb(0%,0%,0%);stop-opacity:1;"/>
</linearGradient>
<linearGradient id="linear6" gradientUnits="userSpaceOnUse" x1="719.52576" y1="728.66797" x2="704.3266" y2="728.66797" gradientTransform="matrix(0,-0.165549,0.165549,0,-110.436567,146.397391)">
<stop offset="0" style="stop-color:rgb(84.705882%,83.529412%,77.647059%);stop-opacity:1;"/>
<stop offset="1" style="stop-color:rgb(0%,0%,0%);stop-opacity:1;"/>
</linearGradient>
<linearGradient id="linear7" gradientUnits="userSpaceOnUse" x1="760.77393" y1="771.82025" x2="760.56592" y2="758.71661" gradientTransform="matrix(0.165549,0,0,0.168882,-116.047955,-93.90547)">
<stop offset="0" style="stop-color:rgb(6.27451%,8.235294%,6.666667%);stop-opacity:1;"/>
<stop offset="1" style="stop-color:rgb(11.764706%,12.54902%,10.196078%);stop-opacity:1;"/>
</linearGradient>
<linearGradient id="linear8" gradientUnits="userSpaceOnUse" x1="761.21765" y1="726.98956" x2="761.21765" y2="745.72131" gradientTransform="matrix(0.165549,0,0,0.175197,-116.04795,-98.298291)">
<stop offset="0" style="stop-color:rgb(6.27451%,8.235294%,6.666667%);stop-opacity:1;"/>
<stop offset="1" style="stop-color:rgb(0%,0%,0%);stop-opacity:1;"/>
</linearGradient>
<linearGradient id="linear9" gradientUnits="userSpaceOnUse" x1="781.45135" y1="751.70026" x2="777.25818" y2="741.81635" gradientTransform="matrix(0.165549,0,0,0.165549,-116.075497,-91.29448)">
<stop offset="0" style="stop-color:rgb(6.27451%,8.235294%,6.666667%);stop-opacity:1;"/>
<stop offset="1" style="stop-color:rgb(11.764706%,12.54902%,10.196078%);stop-opacity:1;"/>
</linearGradient>
<linearGradient id="linear10" gradientUnits="userSpaceOnUse" x1="742.12372" y1="749.67468" x2="744.31085" y2="741.51215" gradientTransform="matrix(0.169407,0,0,0.165549,-118.867169,-91.316362)">
<stop offset="0" style="stop-color:rgb(6.27451%,8.235294%,6.666667%);stop-opacity:1;"/>
<stop offset="1" style="stop-color:rgb(11.764706%,12.54902%,10.196078%);stop-opacity:1;"/>
</linearGradient>
<linearGradient id="linear11" gradientUnits="userSpaceOnUse" x1="686.1322" y1="734.69971" x2="688.12994" y2="727.24402" gradientTransform="matrix(1,0,0,1,0.0000262406,0.0000614352)">
<stop offset="0" style="stop-color:rgb(84.313725%,83.137255%,77.254902%);stop-opacity:1;"/>
<stop offset="1" style="stop-color:rgb(0%,0%,0%);stop-opacity:1;"/>
</linearGradient>
<linearGradient id="linear12" gradientUnits="userSpaceOnUse" x1="1012.7032" y1="504.48358" x2="1012.7032" y2="527.72577" gradientTransform="matrix(0.165549,0,0,-0.165549,-117.011646,120.593631)">
<stop offset="0" style="stop-color:rgb(99.215686%,30.196078%,22.352941%);stop-opacity:1;"/>
<stop offset="1" style="stop-color:rgb(91.372549%,15.686275%,11.764706%);stop-opacity:1;"/>
</linearGradient>
<radialGradient id="radial0" gradientUnits="userSpaceOnUse" cx="37.378048" cy="199.66722" fx="37.378048" fy="199.66722" r="2.375781" gradientTransform="matrix(0.527841,0,0,0.189486,-3.397814,-20.416479)">
<stop offset="0" style="stop-color:rgb(98.431373%,97.254902%,95.686275%);stop-opacity:1;"/>
<stop offset="1" style="stop-color:rgb(90.980392%,84.313725%,77.254902%);stop-opacity:1;"/>
</radialGradient>
<linearGradient id="linear13" gradientUnits="userSpaceOnUse" x1="35.192123" y1="199.78923" x2="35.544746" y2="199.78923" gradientTransform="matrix(0.643239,0,0,0.530256,-7.447922,-88.473404)">
<stop offset="0" style="stop-color:rgb(79.607843%,79.215686%,76.470588%);stop-opacity:1;"/>
<stop offset="1" style="stop-color:rgb(93.333333%,88.235294%,83.137255%);stop-opacity:1;"/>
</linearGradient>
<linearGradient id="linear14" gradientUnits="userSpaceOnUse" x1="35.192123" y1="199.78923" x2="35.786324" y2="199.73955" gradientTransform="matrix(-0.275552,0,0,0.530256,24.880944,-88.473399)">
<stop offset="0" style="stop-color:rgb(79.607843%,79.215686%,76.470588%);stop-opacity:1;"/>
<stop offset="1" style="stop-color:rgb(90.980392%,84.313725%,77.254902%);stop-opacity:1;"/>
</linearGradient>
<linearGradient id="linear15" gradientUnits="userSpaceOnUse" x1="35.192123" y1="199.78923" x2="35.538261" y2="199.76942" gradientTransform="matrix(-1.254167,0,0,0.530256,61.719567,-88.473399)">
<stop offset="0" style="stop-color:rgb(79.607843%,79.215686%,76.470588%);stop-opacity:1;"/>
<stop offset="1" style="stop-color:rgb(94.117647%,89.803922%,85.490196%);stop-opacity:1;"/>
</linearGradient>
<linearGradient id="linear16" gradientUnits="userSpaceOnUse" x1="37.448025" y1="200.03687" x2="37.448025" y2="199.9268" gradientTransform="matrix(0.527841,0,0,0.530256,-3.397809,-88.473401)">
<stop offset="0" style="stop-color:rgb(100%,100%,100%);stop-opacity:1;"/>
<stop offset="1" style="stop-color:rgb(90.980392%,84.313725%,77.254902%);stop-opacity:1;"/>
</linearGradient>
</defs>
<g id="surface1">
<path style=" stroke:none;fill-rule:evenodd;fill:rgb(90.980392%,84.313725%,77.254902%);fill-opacity:1;" d="M 0.535156 17.226562 L 59.464844 17.226562 C 59.765625 17.226562 60 17.464844 60 17.761719 L 60 42.238281 C 60 42.535156 59.765625 42.773438 59.464844 42.773438 L 0.535156 42.773438 C 0.234375 42.773438 0 42.535156 0 42.238281 L 0 17.761719 C 0 17.464844 0.234375 17.226562 0.535156 17.226562 Z M 0.535156 17.226562 "/>
<path style=" stroke:none;fill-rule:evenodd;fill:rgb(11.372549%,13.333333%,14.901961%);fill-opacity:1;" d="M 1.921875 20.859375 L 58.078125 20.859375 C 58.378906 20.859375 58.617188 21.097656 58.617188 21.402344 L 58.617188 40.761719 C 58.617188 41.0625 58.378906 41.308594 58.078125 41.308594 L 1.921875 41.308594 C 1.621094 41.308594 1.382812 41.0625 1.382812 40.761719 L 1.382812 21.402344 C 1.382812 21.097656 1.621094 20.859375 1.921875 20.859375 Z M 1.921875 20.859375 "/>
<path style=" stroke:none;fill-rule:evenodd;fill:rgb(65.098039%,58.039216%,45.490196%);fill-opacity:1;" d="M 19.570312 24.558594 L 34.933594 24.558594 C 35.449219 24.558594 35.863281 24.972656 35.863281 25.488281 L 35.863281 26.503906 C 35.863281 27.019531 35.449219 27.433594 34.933594 27.433594 L 19.570312 27.433594 C 19.054688 27.433594 18.636719 27.019531 18.636719 26.503906 L 18.636719 25.488281 C 18.636719 24.972656 19.054688 24.558594 19.570312 24.558594 Z M 19.570312 24.558594 "/>
<path style=" stroke:none;fill-rule:evenodd;fill:rgb(65.098039%,58.039216%,45.490196%);fill-opacity:1;" d="M 19.570312 28.347656 L 34.933594 28.347656 C 35.449219 28.347656 35.863281 28.761719 35.863281 29.277344 L 35.863281 30.300781 C 35.863281 30.816406 35.449219 31.230469 34.933594 31.230469 L 19.570312 31.230469 C 19.054688 31.230469 18.636719 30.816406 18.636719 30.300781 L 18.636719 29.277344 C 18.636719 28.761719 19.054688 28.347656 19.570312 28.347656 Z M 19.570312 28.347656 "/>
<path style=" stroke:none;fill-rule:evenodd;fill:rgb(65.098039%,58.039216%,45.490196%);fill-opacity:1;" d="M 35.863281 20.859375 L 35.863281 22.710938 C 35.863281 23.226562 35.449219 23.644531 34.933594 23.644531 L 19.570312 23.644531 C 19.054688 23.644531 18.636719 23.226562 18.636719 22.710938 L 18.636719 20.859375 Z M 35.863281 20.859375 "/>
<path style=" stroke:none;fill-rule:evenodd;fill:rgb(65.098039%,58.039216%,45.490196%);fill-opacity:1;" d="M 19.570312 39.566406 L 34.933594 39.566406 C 35.449219 39.566406 35.863281 39.984375 35.863281 40.5 L 35.863281 41.308594 L 18.636719 41.308594 L 18.636719 40.5 C 18.636719 39.984375 19.054688 39.566406 19.570312 39.566406 Z M 19.570312 39.566406 "/>
<path style=" stroke:none;fill-rule:evenodd;fill:rgb(84.313725%,76.078431%,68.627451%);fill-opacity:1;" d="M 19.828125 32.386719 L 34.667969 32.386719 C 35.253906 32.386719 35.722656 32.847656 35.722656 33.425781 L 35.722656 37.429688 C 35.722656 38.011719 35.253906 38.472656 34.667969 38.472656 L 19.828125 38.472656 C 19.246094 38.472656 18.777344 38.011719 18.777344 37.429688 L 18.777344 33.425781 C 18.777344 32.847656 19.246094 32.386719 19.828125 32.386719 Z M 19.828125 32.386719 "/>
<path style=" stroke:none;fill-rule:evenodd;fill:url(#linear0);" d="M 19.757812 32.917969 L 34.746094 32.917969 C 34.972656 32.917969 35.15625 33.097656 35.15625 33.328125 L 35.15625 37.527344 C 35.15625 37.757812 34.972656 37.941406 34.746094 37.941406 L 19.757812 37.941406 C 19.527344 37.941406 19.339844 37.757812 19.339844 37.527344 L 19.339844 33.328125 C 19.339844 33.097656 19.527344 32.917969 19.757812 32.917969 Z M 19.757812 32.917969 "/>
<path style=" stroke:none;fill-rule:evenodd;fill:rgb(84.313725%,76.078431%,68.627451%);fill-opacity:1;" d="M 20.019531 33.386719 L 34.476562 33.386719 C 34.597656 33.386719 34.691406 33.488281 34.691406 33.605469 L 34.691406 37.253906 C 34.691406 37.378906 34.597656 37.472656 34.476562 37.472656 L 20.019531 37.472656 C 19.902344 37.472656 19.808594 37.378906 19.808594 37.253906 L 19.808594 33.605469 C 19.808594 33.488281 19.902344 33.386719 20.019531 33.386719 Z M 20.019531 33.386719 "/>
<path style=" stroke:none;fill-rule:evenodd;fill:rgb(14.509804%,15.294118%,12.941176%);fill-opacity:1;" d="M 21.753906 34.347656 L 24.796875 34.347656 C 25.3125 34.347656 25.722656 34.757812 25.722656 35.273438 L 25.722656 35.582031 C 25.722656 36.097656 25.3125 36.511719 24.796875 36.511719 L 21.753906 36.511719 C 21.246094 36.511719 20.832031 36.097656 20.832031 35.582031 L 20.832031 35.273438 C 20.832031 34.757812 21.246094 34.347656 21.753906 34.347656 Z M 21.753906 34.347656 "/>
<path style=" stroke:none;fill-rule:evenodd;fill:rgb(18.039216%,20.784314%,18.039216%);fill-opacity:1;" d="M 21.996094 34.59375 L 24.5625 34.59375 C 24.988281 34.59375 25.339844 34.917969 25.339844 35.320312 L 25.339844 35.566406 C 25.339844 35.964844 24.988281 36.285156 24.5625 36.285156 L 21.996094 36.285156 C 21.5625 36.285156 21.214844 35.964844 21.214844 35.566406 L 21.214844 35.320312 C 21.214844 34.917969 21.5625 34.59375 21.996094 34.59375 Z M 21.996094 34.59375 "/>
<path style=" stroke:none;fill-rule:evenodd;fill:rgb(14.509804%,15.294118%,12.941176%);fill-opacity:1;" d="M 29.707031 34.347656 L 32.746094 34.347656 C 33.257812 34.347656 33.675781 34.757812 33.675781 35.273438 L 33.675781 35.582031 C 33.675781 36.097656 33.257812 36.511719 32.746094 36.511719 L 29.707031 36.511719 C 29.191406 36.511719 28.78125 36.097656 28.78125 35.582031 L 28.78125 35.273438 C 28.78125 34.757812 29.191406 34.347656 29.707031 34.347656 Z M 29.707031 34.347656 "/>
<path style=" stroke:none;fill-rule:evenodd;fill:rgb(18.039216%,20.784314%,18.039216%);fill-opacity:1;" d="M 29.941406 34.59375 L 32.507812 34.59375 C 32.941406 34.59375 33.285156 34.917969 33.285156 35.320312 L 33.285156 35.566406 C 33.285156 35.964844 32.941406 36.285156 32.507812 36.285156 L 29.941406 36.285156 C 29.507812 36.285156 29.160156 35.964844 29.160156 35.566406 L 29.160156 35.320312 C 29.160156 34.917969 29.507812 34.59375 29.941406 34.59375 Z M 29.941406 34.59375 "/>
<path style=" stroke:none;fill-rule:nonzero;fill:rgb(92.941176%,25.098039%,21.176471%);fill-opacity:1;" d="M 45.082031 40.566406 C 45.117188 40.566406 45.152344 40.550781 45.183594 40.527344 C 45.210938 40.503906 45.222656 40.476562 45.222656 40.441406 C 45.222656 40.40625 45.210938 40.378906 45.183594 40.355469 C 45.152344 40.332031 45.117188 40.316406 45.082031 40.316406 L 44.367188 40.316406 L 44.367188 40.566406 Z M 45.082031 40.066406 C 45.117188 40.066406 45.152344 40.054688 45.183594 40.03125 C 45.210938 40.007812 45.222656 39.980469 45.222656 39.941406 C 45.222656 39.914062 45.210938 39.886719 45.183594 39.855469 C 45.152344 39.832031 45.117188 39.820312 45.082031 39.820312 L 44.367188 39.820312 L 44.367188 40.066406 Z M 44.082031 40.808594 L 44.082031 39.574219 L 45.222656 39.574219 C 45.300781 39.574219 45.371094 39.597656 45.421875 39.644531 C 45.480469 39.699219 45.511719 39.753906 45.511719 39.820312 L 45.511719 40.066406 C 45.511719 40.101562 45.492188 40.128906 45.464844 40.160156 C 45.441406 40.183594 45.402344 40.191406 45.363281 40.191406 C 45.402344 40.191406 45.441406 40.207031 45.464844 40.230469 C 45.492188 40.253906 45.511719 40.285156 45.511719 40.316406 L 45.511719 40.566406 C 45.511719 40.636719 45.480469 40.691406 45.421875 40.738281 C 45.371094 40.785156 45.300781 40.808594 45.222656 40.808594 Z M 44.082031 40.808594 "/>
<path style=" stroke:none;fill-rule:nonzero;fill:rgb(92.941176%,25.098039%,21.176471%);fill-opacity:1;" d="M 53.074219 40.191406 L 53.074219 39.941406 C 53.074219 39.914062 53.058594 39.886719 53.027344 39.855469 C 53.003906 39.832031 52.96875 39.820312 52.925781 39.820312 L 52.441406 39.820312 C 52.402344 39.820312 52.363281 39.832031 52.335938 39.855469 C 52.308594 39.886719 52.292969 39.914062 52.292969 39.941406 L 52.292969 40.191406 Z M 51.902344 40.808594 L 51.902344 39.820312 C 51.902344 39.75 51.933594 39.699219 51.984375 39.644531 C 52.042969 39.597656 52.105469 39.574219 52.191406 39.574219 L 53.203125 39.574219 C 53.277344 39.574219 53.347656 39.597656 53.402344 39.644531 C 53.460938 39.699219 53.484375 39.753906 53.484375 39.820312 L 53.484375 40.808594 L 53.074219 40.808594 L 53.074219 40.535156 L 52.292969 40.535156 L 52.292969 40.808594 Z M 51.902344 40.808594 "/>
<path style=" stroke:none;fill-rule:nonzero;fill:rgb(92.941176%,25.098039%,21.176471%);fill-opacity:1;" d="M 19.570312 30.269531 L 20.320312 30.269531 C 20.53125 30.269531 20.636719 30.167969 20.636719 29.976562 C 20.636719 29.785156 20.53125 29.683594 20.320312 29.683594 L 19.785156 29.683594 L 19.785156 29.527344 L 20.636719 29.527344 L 20.636719 29.308594 L 19.894531 29.308594 C 19.675781 29.308594 19.570312 29.410156 19.570312 29.605469 C 19.570312 29.800781 19.675781 29.894531 19.894531 29.894531 L 20.425781 29.894531 L 20.425781 30.058594 L 19.570312 30.058594 Z M 19.570312 30.269531 "/>
<path style=" stroke:none;fill-rule:nonzero;fill:rgb(92.941176%,25.098039%,21.176471%);fill-opacity:1;" d="M 21.914062 30.269531 L 21.167969 30.269531 C 20.953125 30.269531 20.847656 30.164062 20.847656 29.949219 L 20.847656 29.308594 L 21.914062 29.308594 L 21.914062 29.527344 L 21.066406 29.527344 L 21.066406 29.683594 L 21.914062 29.683594 L 21.914062 29.894531 L 21.066406 29.894531 L 21.066406 29.949219 C 21.066406 30.023438 21.097656 30.058594 21.167969 30.058594 L 21.914062 30.058594 Z M 21.914062 30.269531 "/>
<path style=" stroke:none;fill-rule:nonzero;fill:rgb(92.941176%,25.098039%,21.176471%);fill-opacity:1;" d="M 22.113281 29.308594 L 22.113281 29.949219 C 22.113281 30.164062 22.21875 30.269531 22.433594 30.269531 L 22.992188 30.269531 L 22.992188 30.050781 L 22.433594 30.050781 C 22.359375 30.050781 22.324219 30.019531 22.324219 29.949219 L 22.324219 29.308594 Z M 22.113281 29.308594 "/>
<path style=" stroke:none;fill-rule:nonzero;fill:rgb(92.941176%,25.098039%,21.176471%);fill-opacity:1;" d="M 24.230469 30.269531 L 23.480469 30.269531 C 23.269531 30.269531 23.160156 30.164062 23.160156 29.949219 L 23.160156 29.308594 L 24.230469 29.308594 L 24.230469 29.527344 L 23.371094 29.527344 L 23.371094 29.683594 L 24.230469 29.683594 L 24.230469 29.894531 L 23.371094 29.894531 L 23.371094 29.949219 C 23.371094 30.023438 23.410156 30.058594 23.480469 30.058594 L 24.230469 30.058594 Z M 24.230469 30.269531 "/>
<path style=" stroke:none;fill-rule:nonzero;fill:rgb(92.941176%,25.098039%,21.176471%);fill-opacity:1;" d="M 25.527344 30.269531 L 24.777344 30.269531 C 24.566406 30.269531 24.464844 30.164062 24.464844 29.949219 L 24.464844 29.628906 C 24.464844 29.414062 24.566406 29.308594 24.777344 29.308594 L 25.527344 29.308594 L 25.527344 29.527344 L 24.777344 29.527344 C 24.707031 29.527344 24.675781 29.558594 24.675781 29.628906 L 24.675781 29.949219 C 24.675781 30.023438 24.707031 30.058594 24.777344 30.058594 L 25.527344 30.058594 Z M 25.527344 30.269531 "/>
<path style=" stroke:none;fill-rule:nonzero;fill:rgb(92.941176%,25.098039%,21.176471%);fill-opacity:1;" d="M 25.636719 29.308594 L 26.699219 29.308594 L 26.699219 29.519531 L 26.273438 29.519531 L 26.273438 30.269531 L 26.0625 30.269531 L 26.0625 29.519531 L 25.636719 29.519531 Z M 25.636719 29.308594 "/>
<path style=" stroke:none;fill-rule:nonzero;fill:rgb(92.941176%,25.098039%,21.176471%);fill-opacity:1;" d="M 28.480469 30.269531 L 29.230469 30.269531 C 29.441406 30.269531 29.550781 30.167969 29.550781 29.976562 C 29.550781 29.785156 29.441406 29.683594 29.230469 29.683594 L 28.699219 29.683594 L 28.699219 29.527344 L 29.550781 29.527344 L 29.550781 29.308594 L 28.804688 29.308594 C 28.589844 29.308594 28.480469 29.410156 28.480469 29.605469 C 28.480469 29.800781 28.589844 29.894531 28.804688 29.894531 L 29.339844 29.894531 L 29.339844 30.058594 L 28.480469 30.058594 Z M 28.480469 30.269531 "/>
<path style=" stroke:none;fill-rule:nonzero;fill:rgb(92.941176%,25.098039%,21.176471%);fill-opacity:1;" d="M 29.824219 29.308594 L 30.890625 29.308594 L 30.890625 29.519531 L 30.464844 29.519531 L 30.464844 30.269531 L 30.253906 30.269531 L 30.253906 29.519531 L 29.824219 29.519531 Z M 29.824219 29.308594 "/>
<path style=" stroke:none;fill-rule:nonzero;fill:rgb(92.941176%,25.098039%,21.176471%);fill-opacity:1;" d="M 31.988281 29.789062 L 31.988281 29.628906 C 31.988281 29.558594 31.949219 29.519531 31.878906 29.519531 L 31.453125 29.519531 C 31.382812 29.519531 31.347656 29.558594 31.347656 29.628906 L 31.347656 29.789062 Z M 31.347656 30 L 31.347656 30.269531 L 31.128906 30.269531 L 31.128906 29.628906 C 31.128906 29.414062 31.242188 29.308594 31.453125 29.308594 L 31.878906 29.308594 C 32.089844 29.308594 32.199219 29.414062 32.199219 29.628906 L 32.199219 30.269531 L 31.988281 30.269531 L 31.988281 30 Z M 31.347656 30 "/>
<path style=" stroke:none;fill-rule:nonzero;fill:rgb(92.941176%,25.098039%,21.176471%);fill-opacity:1;" d="M 32.742188 29.683594 L 33.378906 29.683594 L 33.378906 29.519531 L 32.742188 29.519531 Z M 32.742188 29.894531 L 32.742188 30.269531 L 32.527344 30.269531 L 32.527344 29.308594 L 33.277344 29.308594 C 33.488281 29.308594 33.589844 29.410156 33.589844 29.601562 C 33.589844 29.695312 33.582031 29.761719 33.550781 29.808594 C 33.582031 29.855469 33.589844 29.917969 33.589844 30 L 33.589844 30.269531 L 33.378906 30.269531 L 33.378906 30 C 33.378906 29.929688 33.347656 29.894531 33.277344 29.894531 Z M 32.742188 29.894531 "/>
<path style=" stroke:none;fill-rule:nonzero;fill:rgb(92.941176%,25.098039%,21.176471%);fill-opacity:1;" d="M 33.867188 29.308594 L 34.933594 29.308594 L 34.933594 29.519531 L 34.503906 29.519531 L 34.503906 30.269531 L 34.292969 30.269531 L 34.292969 29.519531 L 33.867188 29.519531 Z M 33.867188 29.308594 "/>
<path style=" stroke:none;fill-rule:evenodd;fill:rgb(84.313725%,76.078431%,68.627451%);fill-opacity:1;" d="M 39.433594 32.167969 L 44.988281 32.167969 C 45.277344 32.167969 45.511719 32.402344 45.511719 32.691406 L 45.511719 38.246094 C 45.511719 38.53125 45.277344 38.765625 44.988281 38.765625 L 39.433594 38.765625 C 39.144531 38.765625 38.910156 38.53125 38.910156 38.246094 L 38.910156 32.691406 C 38.910156 32.402344 39.144531 32.167969 39.433594 32.167969 Z M 39.433594 32.167969 "/>
<path style=" stroke:none;fill-rule:evenodd;fill:rgb(13.333333%,14.901961%,12.941176%);fill-opacity:1;" d="M 44.972656 35.464844 C 44.972656 36.988281 43.734375 38.226562 42.210938 38.226562 C 40.6875 38.226562 39.449219 36.988281 39.449219 35.464844 C 39.449219 33.941406 40.6875 32.707031 42.210938 32.707031 C 43.734375 32.707031 44.972656 33.941406 44.972656 35.464844 Z M 44.972656 35.464844 "/>
<path style=" stroke:none;fill-rule:evenodd;fill:rgb(91.372549%,15.294118%,11.372549%);fill-opacity:1;" d="M 44.730469 35.425781 C 44.730469 36.820312 43.597656 37.945312 42.210938 37.945312 C 40.824219 37.945312 39.691406 36.820312 39.691406 35.425781 C 39.691406 34.035156 40.824219 32.910156 42.210938 32.910156 C 43.597656 32.910156 44.730469 34.035156 44.730469 35.425781 Z M 44.730469 35.425781 "/>
<path style=" stroke:none;fill-rule:evenodd;fill:url(#linear1);" d="M 44.582031 35.425781 C 44.582031 34.113281 43.523438 33.050781 42.210938 33.050781 C 40.898438 33.050781 39.839844 34.113281 39.839844 35.425781 C 39.839844 36.738281 40.898438 37.804688 42.210938 37.804688 C 43.523438 37.804688 44.582031 36.738281 44.582031 35.425781 Z M 44.582031 35.425781 "/>
<path style="fill:none;stroke-width:0.146004;stroke-linecap:butt;stroke-linejoin:miter;stroke:rgb(94.509804%,47.45098%,44.705882%);stroke-opacity:1;stroke-miterlimit:4;" d="M 97.625459 240.190535 C 96.695282 238.528276 94.955508 237.503359 93.052091 237.503359 C 90.304626 237.503359 88.030861 239.622094 87.832768 242.360947 " transform="matrix(0.453543,0,0,0.453543,0.000000416534,-74.702361)"/>
<path style=" stroke:none;fill-rule:evenodd;fill:url(#linear2);" d="M 8.082031 26.789062 C 7.785156 26.789062 7.546875 27.003906 7.546875 27.28125 L 7.546875 30.011719 C 7.546875 30.175781 7.410156 30.308594 7.246094 30.308594 L 4.949219 30.308594 C 4.933594 30.308594 4.917969 30.308594 4.898438 30.304688 C 4.792969 30.308594 4.714844 30.308594 4.605469 30.308594 C 4.332031 30.308594 4.105469 30.550781 4.105469 30.84375 L 4.105469 34.261719 C 4.105469 34.558594 4.332031 34.800781 4.605469 34.800781 L 4.949219 34.792969 L 7.246094 34.792969 C 7.410156 34.792969 7.546875 34.925781 7.546875 35.089844 L 7.546875 37.824219 C 7.546875 38.089844 7.785156 38.316406 8.082031 38.316406 L 11.667969 38.316406 C 11.964844 38.316406 12.199219 38.089844 12.207031 37.824219 L 12.207031 35.089844 C 12.207031 34.925781 12.332031 34.792969 12.503906 34.792969 L 14.792969 34.792969 L 15.144531 34.800781 C 15.421875 34.800781 15.644531 34.558594 15.644531 34.261719 L 15.644531 30.84375 C 15.644531 30.550781 15.421875 30.308594 15.144531 30.308594 C 15.027344 30.308594 14.957031 30.308594 14.847656 30.304688 C 14.835938 30.308594 14.816406 30.308594 14.792969 30.308594 L 12.503906 30.308594 C 12.332031 30.308594 12.207031 30.175781 12.207031 30.011719 L 12.207031 27.28125 C 12.199219 27.003906 11.964844 26.789062 11.667969 26.789062 Z M 8.082031 26.789062 "/>
<path style="fill-rule:evenodd;fill:rgb(84.313725%,76.078431%,68.627451%);fill-opacity:1;stroke-width:0.292009;stroke-linecap:butt;stroke-linejoin:miter;stroke:rgb(84.313725%,76.078431%,68.627451%);stroke-opacity:1;stroke-miterlimit:4;" d="M 17.397743 223.335394 C 16.725949 223.335394 16.183346 223.852159 16.183346 224.480889 L 16.183346 230.337556 C 16.183346 230.725129 15.873287 231.035188 15.502939 231.035188 L 10.731479 231.035188 C 10.697028 231.035188 10.653964 231.035188 10.619513 231.017962 C 10.369744 231.035188 10.206101 231.035188 9.947719 231.035188 C 9.310376 231.035188 8.810837 231.603629 8.810837 232.284036 L 8.810837 240.629785 C 8.810837 241.327418 9.310376 241.887246 9.947719 241.887246 L 15.502939 241.887246 C 15.873287 241.887246 16.183346 242.197305 16.183346 242.584878 L 16.183346 248.45877 C 16.183346 249.104726 16.725949 249.621491 17.397743 249.621491 C 20.317463 249.621491 23.228571 249.621491 26.148292 249.621491 C 26.820086 249.621491 27.362689 249.104726 27.362689 248.45877 L 27.362689 242.584878 C 27.362689 242.197305 27.672747 241.887246 28.043095 241.887246 L 33.598316 241.887246 C 34.218433 241.887246 34.726585 241.327418 34.726585 240.629785 L 34.726585 232.284036 C 34.726585 231.603629 34.218433 231.035188 33.598316 231.035188 C 33.339933 231.035188 33.176291 231.035188 32.926521 231.017962 C 32.892071 231.035188 32.849007 231.035188 32.814556 231.035188 L 28.034483 231.035188 C 27.655522 231.035188 27.362689 230.725129 27.362689 230.337556 L 27.362689 224.480889 C 27.362689 223.852159 26.820086 223.335394 26.148292 223.335394 C 23.228571 223.335394 20.317463 223.335394 17.397743 223.335394 Z M 17.785317 223.877997 C 20.446655 223.877997 23.09938 223.877997 25.760718 223.877997 C 26.354997 223.877997 26.828698 224.32586 26.828698 224.894301 L 26.828698 230.957673 C 26.828698 231.302183 27.104306 231.577791 27.440203 231.577791 L 32.504497 231.577791 C 32.530335 231.577791 32.564786 231.577791 32.60785 231.560565 C 32.823169 231.560565 32.969585 231.577791 33.202129 231.577791 C 33.753345 231.577791 34.20982 232.068717 34.20982 232.688835 L 34.20982 240.233599 C 34.20982 240.853717 33.753345 241.344643 33.202129 241.344643 L 27.440203 241.344643 C 27.104306 241.344643 26.845924 241.628864 26.845924 241.964761 L 26.845924 248.071197 C 26.828698 248.639638 26.354997 249.096113 25.760718 249.096113 C 23.09938 249.096113 20.446655 249.096113 17.785317 249.096113 C 17.191037 249.096113 16.717336 248.639638 16.700111 248.071197 L 16.700111 241.964761 C 16.700111 241.628864 16.433116 241.344643 16.105831 241.344643 L 10.343905 241.344643 C 9.79269 241.344643 9.336214 240.853717 9.336214 240.233599 L 9.336214 232.688835 C 9.336214 232.068717 9.79269 231.577791 10.343905 231.577791 C 10.567837 231.577791 10.722866 231.560565 10.938185 231.560565 C 10.981248 231.577791 11.007087 231.577791 11.041538 231.577791 L 16.105831 231.577791 C 16.441728 231.577791 16.717336 231.302183 16.717336 230.957673 L 16.717336 224.894301 C 16.717336 224.32586 17.191037 223.877997 17.785317 223.877997 Z M 17.785317 223.877997 " transform="matrix(0.453543,0,0,0.453543,0.000000416534,-74.702361)"/>
<path style=" stroke:none;fill-rule:evenodd;fill:rgb(6.27451%,8.235294%,6.666667%);fill-opacity:1;" d="M 8.496094 27.285156 C 8.226562 27.285156 8.011719 27.488281 8.011719 27.738281 L 8.011719 30.417969 C 8.011719 30.566406 7.886719 30.683594 7.738281 30.683594 L 5.378906 30.683594 C 5.363281 30.683594 5.347656 30.683594 5.332031 30.683594 C 5.230469 30.683594 5.167969 30.683594 5.0625 30.683594 C 4.808594 30.683594 4.613281 30.910156 4.613281 31.175781 L 4.613281 33.933594 C 4.613281 34.199219 4.808594 34.417969 5.0625 34.417969 L 7.738281 34.417969 C 7.886719 34.417969 8.011719 34.542969 8.011719 34.691406 L 8.011719 37.363281 C 8.011719 37.613281 8.226562 37.816406 8.496094 37.816406 L 11.25 37.816406 C 11.519531 37.816406 11.738281 37.613281 11.742188 37.363281 L 11.742188 34.691406 C 11.742188 34.542969 11.859375 34.417969 12.011719 34.417969 L 14.691406 34.417969 C 14.941406 34.417969 15.140625 34.199219 15.140625 33.933594 L 15.140625 31.175781 C 15.140625 30.910156 14.941406 30.683594 14.691406 30.683594 C 14.582031 30.683594 14.511719 30.683594 14.417969 30.683594 C 14.402344 30.683594 14.386719 30.683594 14.371094 30.683594 L 12.011719 30.683594 C 11.859375 30.683594 11.742188 30.566406 11.742188 30.417969 L 11.742188 27.738281 C 11.738281 27.488281 11.519531 27.285156 11.25 27.285156 Z M 8.496094 27.285156 "/>
<path style=" stroke:none;fill-rule:evenodd;fill:rgb(11.764706%,12.54902%,10.196078%);fill-opacity:1;" d="M 8.652344 27.496094 C 8.414062 27.496094 8.222656 27.675781 8.222656 27.894531 L 8.222656 30.65625 C 8.222656 30.792969 8.113281 30.894531 7.980469 30.894531 L 5.503906 30.894531 C 5.488281 30.894531 5.472656 30.894531 5.460938 30.894531 C 5.371094 30.894531 5.316406 30.894531 5.222656 30.894531 C 4.996094 30.894531 4.824219 31.089844 4.824219 31.332031 L 4.824219 33.773438 C 4.824219 34.011719 4.996094 34.207031 5.222656 34.207031 L 7.980469 34.207031 C 8.113281 34.207031 8.222656 34.316406 8.222656 34.453125 L 8.222656 37.207031 C 8.222656 37.429688 8.414062 37.613281 8.652344 37.613281 L 11.097656 37.613281 C 11.339844 37.613281 11.53125 37.429688 11.53125 37.207031 L 11.53125 34.453125 C 11.53125 34.316406 11.636719 34.207031 11.769531 34.207031 L 14.53125 34.207031 C 14.753906 34.207031 14.929688 34.011719 14.929688 33.773438 L 14.929688 31.332031 C 14.929688 31.089844 14.753906 30.894531 14.53125 30.894531 C 14.4375 30.894531 14.371094 30.894531 14.292969 30.894531 C 14.273438 30.894531 14.261719 30.894531 14.246094 30.894531 L 11.769531 30.894531 C 11.636719 30.894531 11.53125 30.792969 11.53125 30.65625 L 11.53125 27.894531 C 11.53125 27.675781 11.339844 27.496094 11.097656 27.496094 Z M 8.652344 27.496094 "/>
<path style=" stroke:none;fill-rule:nonzero;fill:url(#linear3);" d="M 7.59375 33.558594 L 6.566406 33.558594 L 6.566406 34.007812 L 5.011719 32.554688 L 6.566406 31.105469 L 6.566406 31.558594 L 7.59375 31.558594 Z M 7.59375 33.558594 "/>
<path style=" stroke:none;fill-rule:nonzero;fill:url(#linear4);" d="M 12.164062 33.558594 L 13.183594 33.558594 L 13.183594 34.007812 L 14.742188 32.554688 L 13.183594 31.105469 L 13.183594 31.558594 L 12.164062 31.558594 Z M 12.164062 33.558594 "/>
<path style=" stroke:none;fill-rule:nonzero;fill:url(#linear5);" d="M 10.875 34.847656 L 10.875 35.863281 L 11.332031 35.863281 L 9.878906 37.425781 L 8.425781 35.863281 L 8.878906 35.863281 L 8.878906 34.847656 Z M 10.875 34.847656 "/>
<path style=" stroke:none;fill-rule:nonzero;fill:url(#linear6);" d="M 10.875 30.269531 L 10.875 29.25 L 11.332031 29.25 L 9.878906 27.691406 L 8.425781 29.25 L 8.878906 29.25 L 8.878906 30.269531 Z M 10.875 30.269531 "/>
<path style=" stroke:none;fill-rule:nonzero;fill:url(#linear7);" d="M 9.027344 34.964844 L 9.027344 35.972656 L 8.648438 35.972656 L 9.871094 37.289062 L 11.105469 35.972656 L 10.722656 35.972656 L 10.722656 34.964844 Z M 9.027344 34.964844 "/>
<path style=" stroke:none;fill-rule:nonzero;fill:url(#linear8);" d="M 9.027344 30.257812 L 9.027344 29.207031 L 8.648438 29.207031 L 9.871094 27.84375 L 11.105469 29.207031 L 10.722656 29.207031 L 10.722656 30.257812 Z M 9.027344 30.257812 "/>
<path style=" stroke:none;fill-rule:nonzero;fill:url(#linear9);" d="M 12.277344 33.449219 L 13.261719 33.449219 L 13.261719 33.832031 L 14.554688 32.605469 L 13.261719 31.378906 L 13.261719 31.761719 L 12.277344 31.761719 Z M 12.277344 33.449219 "/>
<path style=" stroke:none;fill-rule:nonzero;fill:url(#linear10);" d="M 7.511719 33.425781 L 6.496094 33.425781 L 6.496094 33.808594 L 5.179688 32.582031 L 6.496094 31.359375 L 6.496094 31.738281 L 7.511719 31.738281 Z M 7.511719 33.425781 "/>
<path style=" stroke:none;fill-rule:evenodd;fill:rgb(30.196078%,30.196078%,30.196078%);fill-opacity:1;" d="M 9.871094 31.191406 C 9.121094 31.191406 8.511719 31.800781 8.511719 32.550781 C 8.511719 33.304688 9.121094 33.914062 9.871094 33.914062 C 10.628906 33.914062 11.238281 33.304688 11.238281 32.550781 C 11.238281 31.800781 10.628906 31.191406 9.871094 31.191406 Z M 9.871094 31.441406 C 10.488281 31.441406 10.988281 31.941406 10.988281 32.550781 C 10.988281 33.164062 10.488281 33.660156 9.871094 33.660156 C 9.261719 33.660156 8.765625 33.164062 8.765625 32.550781 C 8.765625 31.941406 9.261719 31.441406 9.871094 31.441406 Z M 9.871094 31.441406 "/>
<path style="fill-rule:evenodd;fill:url(#linear11);stroke-width:0.8;stroke-linecap:butt;stroke-linejoin:miter;stroke:rgb(6.27451%,8.235294%,6.666667%);stroke-opacity:1;stroke-miterlimit:4;" d="M 694.50076 726.717457 C 694.50076 730.492774 691.45691 733.583815 687.634401 733.583815 C 683.835488 733.583815 680.768043 730.492774 680.768043 726.717457 C 680.768043 722.918544 683.835488 719.851098 687.634401 719.851098 C 691.45691 719.851098 694.50076 722.918544 694.50076 726.717457 Z M 694.50076 726.717457 " transform="matrix(0.165549,0,0,0.165549,-103.962187,-87.756567)"/>
<path style="fill:none;stroke-width:0.4;stroke-linecap:butt;stroke-linejoin:miter;stroke:rgb(50.196078%,50.196078%,50.196078%);stroke-opacity:1;stroke-miterlimit:4;" d="M 775.898524 467.818549 C 775.898524 466.473592 774.742333 465.388189 773.279398 465.388189 L 758.532065 465.388189 C 757.069129 465.388189 755.912938 466.473592 755.912938 467.818549 M 754.450003 485.940072 L 739.513904 485.940072 C 739.419521 485.940072 739.348734 485.916476 739.230755 485.916476 C 738.735245 485.916476 738.357713 485.940072 737.791415 485.940072 C 736.446458 485.940072 735.38465 487.119859 735.38465 488.559198 M 737.791415 505.949254 L 754.450003 505.949254 C 755.275853 505.949254 755.912938 506.586338 755.912938 507.388593 M 755.912938 524.070777 C 755.912938 525.415733 757.069129 526.477541 758.532065 526.477541 L 773.279398 526.477541 C 774.742333 526.477541 775.898524 525.415733 775.898524 524.070777 L 775.898524 507.388593 C 775.898524 506.586338 776.535609 505.949254 777.361459 505.949254 L 794.020047 505.949254 C 795.365004 505.949254 796.426812 504.769467 796.426812 503.330127 M 796.426812 488.559198 C 796.285237 487.119859 795.365004 485.940072 794.020047 485.940072 C 793.453749 485.940072 793.099813 485.916476 792.580707 485.916476 C 792.50992 485.916476 792.391941 485.940072 792.321154 485.940072 L 777.361459 485.940072 C 776.535609 485.940072 775.898524 485.279392 775.898524 484.453541 " transform="matrix(0.165549,0,0,0.165549,-116.929694,-49.556268)"/>
<path style="fill:none;stroke-width:0.292;stroke-linecap:butt;stroke-linejoin:miter;stroke:rgb(37.254902%,38.431373%,37.254902%);stroke-opacity:1;stroke-miterlimit:4;" d="M 47.051423 242.800204 C 47.051423 241.913091 47.774894 241.198233 48.679232 241.198233 L 54.010521 241.198233 C 54.914859 241.198233 55.63833 241.913091 55.63833 242.800204 L 55.63833 243.342807 " transform="matrix(0.453543,0,0,0.453543,0,-74.702364)"/>
<path style="fill:none;stroke-width:0.292009;stroke-linecap:butt;stroke-linejoin:miter;stroke:rgb(37.254902%,38.431373%,37.254902%);stroke-opacity:1;stroke-miterlimit:4;" d="M 64.55252 242.800204 C 64.55252 241.913091 65.275991 241.198233 66.171716 241.198233 L 71.520231 241.198233 C 72.407343 241.198233 73.148039 241.913091 73.148039 242.800204 L 73.148039 243.342807 " transform="matrix(0.453543,0,0,0.453543,0,-74.702364)"/>
<path style=" stroke:none;fill-rule:evenodd;fill:rgb(84.313725%,76.078431%,68.627451%);fill-opacity:1;" d="M 47.414062 32.167969 L 52.96875 32.167969 C 53.253906 32.167969 53.484375 32.402344 53.484375 32.691406 L 53.484375 38.246094 C 53.484375 38.53125 53.253906 38.765625 52.96875 38.765625 L 47.414062 38.765625 C 47.128906 38.765625 46.894531 38.53125 46.894531 38.246094 L 46.894531 32.691406 C 46.894531 32.402344 47.128906 32.167969 47.414062 32.167969 Z M 47.414062 32.167969 "/>
<path style=" stroke:none;fill-rule:evenodd;fill:rgb(13.333333%,14.901961%,12.941176%);fill-opacity:1;" d="M 52.949219 35.464844 C 52.949219 36.988281 51.714844 38.226562 50.191406 38.226562 C 48.667969 38.226562 47.433594 36.988281 47.433594 35.464844 C 47.433594 33.941406 48.667969 32.707031 50.191406 32.707031 C 51.714844 32.707031 52.949219 33.941406 52.949219 35.464844 Z M 52.949219 35.464844 "/>
<path style=" stroke:none;fill-rule:evenodd;fill:rgb(91.372549%,15.294118%,11.372549%);fill-opacity:1;" d="M 52.707031 35.425781 C 52.707031 36.820312 51.582031 37.945312 50.191406 37.945312 C 48.796875 37.945312 47.671875 36.820312 47.671875 35.425781 C 47.671875 34.035156 48.796875 32.910156 50.191406 32.910156 C 51.582031 32.910156 52.707031 34.035156 52.707031 35.425781 Z M 52.707031 35.425781 "/>
<path style=" stroke:none;fill-rule:evenodd;fill:url(#linear12);" d="M 52.566406 35.425781 C 52.566406 34.113281 51.503906 33.050781 50.191406 33.050781 C 48.878906 33.050781 47.8125 34.113281 47.8125 35.425781 C 47.8125 36.738281 48.878906 37.804688 50.191406 37.804688 C 51.503906 37.804688 52.566406 36.738281 52.566406 35.425781 Z M 52.566406 35.425781 "/>
<path style="fill:none;stroke-width:0.146004;stroke-linecap:butt;stroke-linejoin:miter;stroke:rgb(94.509804%,47.45098%,44.705882%);stroke-opacity:1;stroke-miterlimit:4;" d="M 97.627763 240.190535 C 96.697587 238.528276 94.957812 237.503359 93.054396 237.503359 C 90.30693 237.503359 88.033166 239.622094 87.835072 242.360947 " transform="matrix(0.453543,0,0,0.453543,7.979424,-74.702361)"/>
<path style="fill-rule:nonzero;fill:rgb(92.941176%,25.098039%,21.176471%);fill-opacity:1;stroke-width:0.26083;stroke-linecap:butt;stroke-linejoin:miter;stroke:rgb(92.941176%,25.098039%,21.176471%);stroke-opacity:1;stroke-miterlimit:4;" d="M 91.501798 219.830014 C 91.501798 220.191749 91.450122 220.501808 91.338156 220.76019 C 91.183127 221.121926 90.959195 221.302793 90.666362 221.302793 L 89.563931 221.302793 L 89.563931 220.889381 L 90.261563 220.889381 C 90.44243 220.889381 90.59746 220.751578 90.6922 220.47597 C 90.769715 220.286489 90.795553 220.062558 90.795553 219.821401 C 90.795553 219.588857 90.769715 219.364926 90.6922 219.15822 C 90.59746 218.873999 90.44243 218.744808 90.261563 218.744808 L 89.27971 218.744808 L 89.27971 223.292337 L 88.521788 223.292337 L 88.521788 218.322784 L 90.666362 218.322784 C 90.950582 218.322784 91.183127 218.512264 91.338156 218.891225 C 91.450122 219.175445 91.501798 219.494117 91.501798 219.830014 Z M 91.501798 219.830014 " transform="matrix(0.453543,0,0,0.453543,0,-74.702364)"/>
<path style="fill-rule:nonzero;fill:rgb(92.941176%,25.098039%,21.176471%);fill-opacity:1;stroke-width:0.26083;stroke-linecap:butt;stroke-linejoin:miter;stroke:rgb(92.941176%,25.098039%,21.176471%);stroke-opacity:1;stroke-miterlimit:4;" d="M 92.914288 223.292337 L 92.147754 223.292337 L 92.147754 218.322784 L 92.914288 218.322784 Z M 92.914288 223.292337 " transform="matrix(0.453543,0,0,0.453543,0,-74.702364)"/>
<path style="fill-rule:nonzero;fill:rgb(92.941176%,25.098039%,21.176471%);fill-opacity:1;stroke-width:0.26083;stroke-linecap:butt;stroke-linejoin:miter;stroke:rgb(92.941176%,25.098039%,21.176471%);stroke-opacity:1;stroke-miterlimit:4;" d="M 96.324935 223.292337 L 94.232038 223.292337 C 93.973656 223.292337 93.76695 223.163146 93.620533 222.896151 C 93.508568 222.67222 93.456891 222.431063 93.456891 222.129617 C 93.456891 221.836783 93.508568 221.578401 93.620533 221.35447 C 93.76695 221.087475 93.973656 220.941058 94.232038 220.941058 L 95.239729 220.941058 L 95.239729 221.35447 C 95.170827 221.35447 95.0847 221.35447 94.964121 221.35447 C 94.860768 221.35447 94.783254 221.35447 94.748803 221.35447 C 94.524871 221.35447 94.387067 221.397533 94.309553 221.475048 C 94.214813 221.578401 94.163136 221.767881 94.163136 222.069327 C 94.163136 222.23297 94.188974 222.405225 94.232038 222.560254 C 94.292327 222.775573 94.39568 222.878925 94.516259 222.878925 L 95.584239 222.878925 L 95.584239 220.441519 C 95.584239 220.217587 95.549788 220.062558 95.498112 219.976431 C 95.42921 219.847239 95.300018 219.778337 95.093313 219.778337 L 94.137298 219.778337 L 94.137298 219.356313 L 95.420597 219.356313 C 95.790945 219.356313 96.049327 219.459666 96.178518 219.674985 C 96.281871 219.830014 96.324935 220.105622 96.324935 220.519033 Z M 96.324935 223.292337 " transform="matrix(0.453543,0,0,0.453543,0,-74.702364)"/>
<path style="fill-rule:nonzero;fill:rgb(92.941176%,25.098039%,21.176471%);fill-opacity:1;stroke-width:0.26083;stroke-linecap:butt;stroke-linejoin:miter;stroke:rgb(92.941176%,25.098039%,21.176471%);stroke-opacity:1;stroke-miterlimit:4;" d="M 100.252347 219.356313 L 98.262803 225.023499 L 97.573783 225.023499 L 98.211126 223.292337 L 96.695283 219.356313 L 97.547945 219.356313 L 98.650376 222.336323 L 99.658067 219.356313 Z M 100.252347 219.356313 " transform="matrix(0.453543,0,0,0.453543,0,-74.702364)"/>
<path style="fill-rule:nonzero;fill:rgb(92.941176%,25.098039%,21.176471%);fill-opacity:1;stroke-width:0.26083;stroke-linecap:butt;stroke-linejoin:miter;stroke:rgb(92.941176%,25.098039%,21.176471%);stroke-opacity:1;stroke-miterlimit:4;" d="M 103.482126 223.309563 L 101.42368 223.309563 C 101.139459 223.309563 100.924141 223.154533 100.769111 222.844475 C 100.63992 222.594705 100.571018 222.32771 100.571018 222.017651 L 100.571018 219.640534 C 100.571018 219.313249 100.63992 219.046254 100.769111 218.796485 C 100.924141 218.477813 101.139459 218.322784 101.42368 218.322784 L 103.129003 218.322784 L 103.129003 218.744808 L 101.828479 218.744808 C 101.647611 218.744808 101.501194 218.848161 101.397842 219.072092 C 101.320327 219.235735 101.285876 219.433828 101.285876 219.640534 L 101.285876 222.017651 C 101.285876 222.224357 101.320327 222.405225 101.397842 222.568867 C 101.501194 222.775573 101.647611 222.896151 101.828479 222.896151 L 102.793106 222.896151 L 102.793106 221.00996 L 101.7079 221.00996 L 101.7079 220.579323 L 103.482126 220.579323 Z M 103.482126 223.309563 " transform="matrix(0.453543,0,0,0.453543,0,-74.702364)"/>
<path style="fill-rule:nonzero;fill:rgb(92.941176%,25.098039%,21.176471%);fill-opacity:1;stroke-width:0.26083;stroke-linecap:butt;stroke-linejoin:miter;stroke:rgb(92.941176%,25.098039%,21.176471%);stroke-opacity:1;stroke-miterlimit:4;" d="M 106.746356 223.292337 L 104.653459 223.292337 C 104.395077 223.292337 104.188371 223.163146 104.050567 222.896151 C 103.929988 222.67222 103.878312 222.431063 103.878312 222.129617 C 103.878312 221.836783 103.929988 221.578401 104.050567 221.35447 C 104.188371 221.087475 104.395077 220.941058 104.653459 220.941058 L 105.66115 220.941058 L 105.66115 221.35447 C 105.600861 221.35447 105.506121 221.35447 105.394155 221.35447 C 105.290802 221.35447 105.213287 221.35447 105.170224 221.35447 C 104.954905 221.35447 104.808488 221.397533 104.730974 221.475048 C 104.644846 221.578401 104.601783 221.767881 104.601783 222.069327 C 104.601783 222.23297 104.619008 222.405225 104.653459 222.560254 C 104.722361 222.775573 104.825714 222.878925 104.93768 222.878925 L 106.014273 222.878925 L 106.014273 220.441519 C 106.014273 220.217587 105.988434 220.062558 105.936758 219.976431 C 105.859243 219.847239 105.730052 219.778337 105.531959 219.778337 L 104.575944 219.778337 L 104.575944 219.356313 L 105.842018 219.356313 C 106.220978 219.356313 106.479361 219.459666 106.608552 219.674985 C 106.711905 219.830014 106.746356 220.105622 106.746356 220.519033 Z M 106.746356 223.292337 " transform="matrix(0.453543,0,0,0.453543,0,-74.702364)"/>
<path style="fill-rule:nonzero;fill:rgb(92.941176%,25.098039%,21.176471%);fill-opacity:1;stroke-width:0.26083;stroke-linecap:butt;stroke-linejoin:miter;stroke:rgb(92.941176%,25.098039%,21.176471%);stroke-opacity:1;stroke-miterlimit:4;" d="M 112.060419 223.292337 L 111.319723 223.292337 L 111.319723 220.656837 C 111.319723 220.389842 111.293885 220.191749 111.259434 220.079784 C 111.190532 219.88169 111.052728 219.778337 110.846022 219.778337 L 110.05365 219.778337 L 110.05365 223.292337 L 109.304341 223.292337 L 109.304341 219.778337 L 108.038268 219.778337 L 108.038268 223.292337 L 107.288959 223.292337 L 107.288959 219.356313 L 111.138856 219.356313 C 111.517816 219.356313 111.776199 219.459666 111.914003 219.674985 C 112.008743 219.830014 112.060419 220.114234 112.060419 220.519033 Z M 112.060419 223.292337 " transform="matrix(0.453543,0,0,0.453543,0,-74.702364)"/>
<path style="fill-rule:nonzero;fill:rgb(92.941176%,25.098039%,21.176471%);fill-opacity:1;stroke-width:0.26083;stroke-linecap:butt;stroke-linejoin:miter;stroke:rgb(92.941176%,25.098039%,21.176471%);stroke-opacity:1;stroke-miterlimit:4;" d="M 115.479679 220.527646 C 115.479679 220.786029 115.445228 221.035798 115.350488 221.242504 C 115.221297 221.509499 115.057654 221.63869 114.82511 221.63869 L 113.765743 221.63869 L 113.765743 221.242504 L 114.394473 221.242504 C 114.523664 221.242504 114.644243 221.139151 114.704532 220.932445 C 114.756208 220.777416 114.782047 220.622386 114.782047 220.441519 C 114.782047 220.002269 114.695919 219.778337 114.515051 219.778337 L 113.765743 219.778337 C 113.559037 219.778337 113.429846 219.873078 113.352331 220.053945 C 113.309267 220.157298 113.283429 220.338166 113.283429 220.579323 L 113.283429 222.069327 C 113.283429 222.362161 113.309267 222.568867 113.378169 222.663607 C 113.455684 222.818636 113.636552 222.896151 113.894934 222.896151 C 113.791581 222.896151 114.230831 222.878925 115.221297 222.878925 L 115.221297 223.292337 L 113.455684 223.292337 C 113.076723 223.292337 112.818341 223.180372 112.680537 222.947827 C 112.577184 222.76696 112.53412 222.465514 112.53412 222.052102 L 112.53412 220.605161 C 112.53412 220.191749 112.577184 219.898916 112.680537 219.718048 C 112.818341 219.485504 113.076723 219.356313 113.455684 219.356313 L 114.82511 219.356313 C 115.057654 219.356313 115.221297 219.494117 115.350488 219.778337 C 115.445228 220.002269 115.479679 220.243426 115.479679 220.527646 Z M 115.479679 220.527646 " transform="matrix(0.453543,0,0,0.453543,0,-74.702364)"/>
<path style=" stroke:none;fill-rule:evenodd;fill:rgb(88.235294%,83.529412%,80%);fill-opacity:1;" d="M 15.050781 17.226562 L 17.601562 17.226562 L 17.601562 17.652344 L 15.050781 17.652344 Z M 15.050781 17.226562 "/>
<path style=" stroke:none;fill-rule:evenodd;fill:url(#radial0);" d="M 15.082031 17.226562 L 17.589844 17.226562 L 17.589844 17.621094 L 15.082031 17.621094 Z M 15.082031 17.226562 "/>
<path style=" stroke:none;fill-rule:evenodd;fill:url(#linear13);" d="M 15.183594 17.226562 L 15.421875 17.226562 L 15.421875 17.621094 L 15.183594 17.621094 Z M 15.183594 17.226562 "/>
<path style=" stroke:none;fill-rule:evenodd;fill:url(#linear14);" d="M 15.1875 17.226562 L 15.082031 17.226562 L 15.082031 17.621094 L 15.1875 17.621094 Z M 15.1875 17.226562 "/>
<path style=" stroke:none;fill-rule:evenodd;fill:url(#linear15);" d="M 17.589844 17.226562 L 17.128906 17.226562 L 17.128906 17.621094 L 17.589844 17.621094 Z M 17.589844 17.226562 "/>
<path style=" stroke:none;fill-rule:evenodd;fill:url(#linear16);" d="M 17.550781 17.550781 C 17.566406 17.550781 17.578125 17.550781 17.589844 17.550781 Z M 17.589844 17.574219 C 17.363281 17.582031 16.863281 17.589844 16.3125 17.589844 C 15.800781 17.589844 15.332031 17.582031 15.082031 17.578125 L 15.082031 17.621094 L 17.589844 17.621094 Z M 17.589844 17.574219 "/>
</g>
</svg>
